<svg width="48" height="48" viewBox="0 0 48 48" fill="none" xmlns="http://www.w3.org/2000/svg">
<g clip-path="url(#clip0_1_164)">
<path d="M47.908 11.0837L31.072 27.9197C29.1947 29.7922 26.6515 30.8438 24 30.8438C21.3485 30.8438 18.8052 29.7922 16.928 27.9197L0.0919847 11.0837C0.0639847 11.3997 -1.52588e-05 11.6857 -1.52588e-05 11.9997V35.9997C0.00316046 38.6509 1.05775 41.1926 2.93242 43.0672C4.8071 44.9419 7.34879 45.9965 9.99998 45.9997H38C40.6512 45.9965 43.1929 44.9419 45.0675 43.0672C46.9422 41.1926 47.9968 38.6509 48 35.9997V11.9997C48 11.6857 47.936 11.3997 47.908 11.0837Z" fill="#040404"/>
<path d="M28.2441 25.0917L46.5121 6.82168C45.6271 5.35431 44.379 4.13975 42.888 3.29514C41.3971 2.45052 39.7136 2.00436 38.0001 1.99968H10.0001C8.28653 2.00436 6.60309 2.45052 5.11214 3.29514C3.62119 4.13975 2.37304 5.35431 1.48808 6.82168L19.7561 25.0917C20.8832 26.2143 22.4093 26.8446 24.0001 26.8446C25.5909 26.8446 27.1169 26.2143 28.2441 25.0917V25.0917Z" fill="#040404"/>
</g>
<defs>
<clipPath id="clip0_1_164">
<rect width="48" height="48" fill="white"/>
</clipPath>
</defs>
</svg>
